<svg xmlns="http://www.w3.org/2000/svg" width="150.01" height="56.97" viewBox="0 0 150.01 56.97">
    <g data-name="ebay (2)">
        <path data-name="Path 145" d="M18.39 18.87C8.36 18.87 0 23.12 0 35.96c0 10.17 5.62 16.57 18.64 16.57 15.33 0 16.32-10.1 16.32-10.1h-7.43s-1.59 5.44-9.34 5.44c-6.31 0-10.85-4.26-10.85-10.24h28.39v-3.75c.01-5.9-3.74-15.01-17.34-15.01zm-.26 4.79c6 0 10.1 3.68 10.1 9.19H7.51c0-5.85 5.34-9.19 10.62-9.19z" style="fill:#a7a8a9" transform="translate(0 -6.44)"/>
        <path data-name="Path 146" d="M35.73 6.44v39.65c0 2.25-.16 5.41-.16 5.41h7.09s.25-2.27.25-4.34c0 0 3.5 5.48 13.02 5.48 10.02 0 16.83-6.96 16.83-16.93 0-9.28-6.25-16.74-16.82-16.74-9.89 0-12.97 5.34-12.97 5.34V6.44zm18.39 17.43c6.81 0 11.13 5.05 11.13 11.83 0 7.27-5 12.03-11.09 12.03-7.27 0-11.18-5.67-11.18-11.96 0-5.86 3.52-11.9 11.14-11.9z" style="fill:#a7a8a9" transform="translate(0 -6.44)"/>
        <path data-name="Path 147" d="M90.38 18.87c-15.09 0-16.06 8.26-16.06 9.58h7.51s.39-4.82 8.03-4.82c4.96 0 8.8 2.27 8.8 6.64v1.55h-8.8c-11.69 0-17.87 3.42-17.87 10.36 0 6.83 5.71 10.54 13.43 10.54 10.52 0 13.9-5.81 13.9-5.81 0 2.31.18 4.59.18 4.59h6.68s-.26-2.82-.26-4.63V31.26c-.01-10.24-8.26-12.39-15.54-12.39zm8.28 17.61v2.07c0 2.7-1.66 9.42-11.48 9.42-5.38 0-7.68-2.68-7.68-5.79 0-5.67 7.76-5.7 19.16-5.7z" style="fill:#a7a8a9" transform="translate(0 -6.44)"/>
        <path data-name="Path 148" d="M101.87 20.16h8.45l12.13 24.29 12.1-24.29h7.65l-22.04 43.25h-8.03l6.36-12.06-16.62-31.19z" style="fill:#a7a8a9" transform="translate(0 -6.44)"/>
        <path data-name="Path 149" d="M145 15.55v.75h.63v.5H145v1.16c0 .32.09.48.34.48a1.432 1.432 0 0 0 .26-.03l.01.51a1.435 1.435 0 0 1-.48.06.745.745 0 0 1-.57-.22 1.045 1.045 0 0 1-.2-.73V16.8h-.38v-.5h.38v-.6zm1.13 1.53c0-.3-.01-.56-.02-.78h.57l.03.39h.02a.905.905 0 0 1 .81-.45.768.768 0 0 1 .73.48h.01a1.013 1.013 0 0 1 .32-.33.9.9 0 0 1 .53-.16c.44 0 .88.3.88 1.14v1.55h-.65v-1.45c0-.44-.15-.7-.47-.7a.5.5 0 0 0-.46.35.78.78 0 0 0-.03.22v1.57h-.65V17.4c0-.37-.15-.62-.45-.62a.6.6 0 0 0-.51.6v1.55h-.65l-.01-1.85z" style="fill:#a7a8a9" transform="translate(0 -6.44)"/>
    </g>
</svg>
