<svg xmlns="http://www.w3.org/2000/svg" width="150.008" height="31.309" viewBox="0 0 150.008 31.309">
    <path d="M23.59 20.76v17.28q.03 4.3-2.02 6.25c-1.37 1.3-3.54 1.94-6.5 1.94s-5.13-.65-6.5-1.94-2.05-3.38-2.02-6.25V20.03H.76a.641.641 0 0 0-.76.73v17.56q.09 7.14 4.18 10.12t10.87 2.88c4.53.06 8.15-.9 10.89-2.88s4.13-5.36 4.19-10.12v-18.3h-5.77c-.52-.01-.77.23-.77.74zm83.57 4.27a.843.843 0 0 0 .86-.51l1.66-4.14c.08-.23 0-.35-.25-.35h-23.2a3.954 3.954 0 0 0-2.29.51 1.894 1.894 0 0 0-.7 1.63v26.81a1.7 1.7 0 0 0 .53 1.37 2.729 2.729 0 0 0 1.77.45h21.64a.843.843 0 0 0 .86-.51l1.66-4.11c.08-.25 0-.38-.25-.38H89.66v-5.45a2.36 2.36 0 0 1 .86-2.07 4.99 4.99 0 0 1 2.96-.67h8.57a.939.939 0 0 0 .54-.13 1.014 1.014 0 0 0 .32-.38l1.59-3.95c.08-.25 0-.38-.25-.38h-14.6v-7.71h17.51zM66.3 34.56a6.08 6.08 0 0 0 2.73-2.74 9.117 9.117 0 0 0 .84-3.98q-.165-4.965-3.49-6.47a17.376 17.376 0 0 0-7.79-1.34h-13.1a4.08 4.08 0 0 0-2.33.51 1.8 1.8 0 0 0-.67 1.63v26.81a1.7 1.7 0 0 0 .53 1.37 2.729 2.729 0 0 0 1.77.45h16.13a12.619 12.619 0 0 0 7.49-1.96q2.835-2 2.93-6.55a9.447 9.447 0 0 0-1.23-4.89 6.137 6.137 0 0 0-3.81-2.84zM48.83 24.9h10.23c1.66 0 2.8.32 3.43.97a4.039 4.039 0 0 1 .91 2.98 4.107 4.107 0 0 1-.91 3 4.669 4.669 0 0 1-3.43.99H48.83zm11.41 21.01H48.83V40.2a2.322 2.322 0 0 1 .88-2.07 5.1 5.1 0 0 1 2.98-.67h7.55c1.78 0 3.01.35 3.68 1.05a4.272 4.272 0 0 1 .94 3.19 4.253 4.253 0 0 1-.94 3.16c-.67.7-1.89 1.05-3.68 1.05zm89.7 4.33-6.92-11.83a8.043 8.043 0 0 0 4.4-2.63c1.17-1.35 1.77-3.45 1.82-6.3-.04-3.65-1.14-6.16-3.28-7.52s-5.15-2.01-9.02-1.94h-13.16a3.954 3.954 0 0 0-2.29.51 1.894 1.894 0 0 0-.7 1.63v27.89c0 .49.25.73.76.73h5.61V41.8a2.322 2.322 0 0 1 .88-2.07 5.1 5.1 0 0 1 2.98-.67h5.71l6.22 11.22a.942.942 0 0 0 .32.38 1.024 1.024 0 0 0 .54.13h5.86q.285-.03.33-.21a.509.509 0 0 0-.06-.34zm-12.05-15.96h-10.74v-9.31h10.74c1.95 0 3.27.39 3.94 1.16a5.02 5.02 0 0 1 .94 3.49 5.029 5.029 0 0 1-.94 3.51c-.68.76-1.99 1.15-3.94 1.15z" style="fill:#a7a8a9;fill-rule:evenodd" transform="translate(0 -20.015)"/>
</svg>
