<!-- Generated by IcoMoon.io -->
<svg version="1.1" xmlns="http://www.w3.org/2000/svg" width="1024" height="1024" viewBox="0 0 1024 1024">
<title>spiff</title>
<g id="icomoon-ignore">
</g>
<path fill="#fff" d="M512 320h64v64h-64v-64z"></path>
<path fill="#fff" d="M640 320h64v64h-64v-64z"></path>
<path fill="#fff" d="M640 448h64v64h-64v-64z"></path>
<path fill="#fff" d="M384 896c0 35.346-28.654 64-64 64s-64-28.654-64-64c0-35.346 28.654-64 64-64s64 28.654 64 64z"></path>
<path fill="#fff" d="M704 896c0 35.346-28.654 64-64 64s-64-28.654-64-64c0-35.346 28.654-64 64-64s64 28.654 64 64z"></path>
<path fill="#fff" d="M384 448h64v64h-64v-64z"></path>
<path fill="#fff" d="M960 0c-35.2 3.2-67.2 25.6-80 60.8l-32 131.2h-768c-25.6-3.2-44.8 16-48 41.6 0 6.4 0 12.8 3.2 19.2l92.8 387.2h608l-16 64h-576v3.2c12.8 35.2 44.8 57.6 80 60.8h480c35.2-3.2 67.2-25.6 80-60.8v-3.2l115.2-451.2 44.8-188.8h80c0-35.2-28.8-64-64-64zM752 576h-576l-80-320h736l-80 320z"></path>
<path fill="#fff" d="M512 448h64v64h-64v-64z"></path>
<path fill="#fff" d="M256 448h64v64h-64v-64z"></path>
<path fill="#fff" d="M384 320h64v64h-64v-64z"></path>
<path fill="#fff" d="M256 320h64v64h-64v-64z"></path>
</svg>
