<?xml version="1.0" encoding="utf-8"?>
<!-- Generator: Adobe Illustrator 26.0.3, SVG Export Plug-In . SVG Version: 6.00 Build 0)  -->
<svg version="1.2" baseProfile="tiny" id="Layer_1" xmlns="http://www.w3.org/2000/svg" xmlns:xlink="http://www.w3.org/1999/xlink"
	 x="0px" y="0px" viewBox="0 0 73.8931122 49.1477242" overflow="visible" xml:space="preserve">
<g>
	<g id="Rectangle_190">
		<g>
			<path fill="none" d="M10.288332-0.0079697h53.3165207c5.4704704,0,9.9051628,4.4346924,9.9051628,9.9051628v29.3529587
				c0,5.4704666-4.4346924,9.9051628-9.9051628,9.9051628H10.288332c-5.47047,0-9.9051619-4.4346962-9.9051619-9.9051628V9.897193
				C0.3831697,4.4267225,4.817862-0.0079697,10.288332-0.0079697z"/>
		</g>
		<g>
			<path fill="#00556C" d="M63.6044426,49.1556931H10.2882605c-5.4618654,0-9.9051628-4.443779-9.9051628-9.9051628V9.8972969
				c0-5.4618654,4.4432974-9.9051628,9.9051628-9.9051628h53.3161812c5.4613838,0,9.9051628,4.4432974,9.9051628,9.9051628
				v29.3532333C73.5096054,44.7119141,69.0658264,49.1556931,63.6044426,49.1556931z M10.2882605,1.9731668
				c-4.3692989,0-7.92413,3.554831-7.92413,7.92413v29.3532333c0,4.3693008,3.554831,7.9241295,7.92413,7.9241295h53.3161812
				c4.369297,0,7.9241295-3.5548286,7.9241295-7.9241295V9.8972969c0-4.3692989-3.5548325-7.92413-7.9241295-7.92413H10.2882605z"/>
		</g>
	</g>
	<g>
		<path fill="#00556C" d="M27.4834881,32.4184837l-0.197813,1.7827339l1.8025646-0.5049286l0.158638,1.2178307l-1.644413,0.1189766
			l1.0795097,1.4364433l-1.0993385,0.5842514l-0.7525597-1.5157623l-0.664053,1.5060883l-1.1389961-0.5745773l1.0698338-1.4364433
			l-1.6342545-0.1286507l0.1881409-1.2081566l1.7629051,0.5049286l-0.197813-1.7827339H27.4834881z"/>
		<path fill="#00556C" d="M32.7925186,32.4184837l-0.1978111,1.7827339l1.8025627-0.5049286l0.158638,1.2178307
			l-1.6444092,0.1189766l1.0795059,1.4364433l-1.0993385,0.5842514l-0.7525597-1.5157623l-0.6640511,1.5060883l-1.138998-0.5745773
			l1.0698357-1.4364433l-1.6342545-0.1286507l0.188139-1.2081566l1.762907,0.5049286l-0.197813-1.7827339H32.7925186z"/>
		<path fill="#00556C" d="M38.1015511,32.4184837l-0.1978149,1.7827339l1.8025665-0.5049286l0.158638,1.2178307l-1.644413,0.1189766
			l1.0795097,1.4364433l-1.0988541,0.5842514l-0.7530441-1.5157623l-0.6640511,1.5060883l-1.1389999-0.5745773l1.0698357-1.4364433
			l-1.6342545-0.1286507l0.1881409-1.2081566l1.7629051,0.5049286l-0.1978111-1.7827339H38.1015511z"/>
		<path fill="#00556C" d="M43.411068,32.4184837l-0.1973305,1.7827339l1.8020821-0.5049286l0.158638,1.2178307l-1.644413,0.1189766
			l1.0795097,1.4364433l-1.0988541,0.5842514l-0.7525635-1.5157623l-0.6645355,1.5060883l-1.1385117-0.5745773l1.0698357-1.4364433
			l-1.6347389-0.1286507l0.1886215-1.2081566l1.7624245,0.5049286l-0.1973305-1.7827339H43.411068z"/>
		<path fill="#00556C" d="M48.7205811,32.4184837l-0.1982956,1.7827339l1.8030472-0.5049286l0.158638,1.2178307
			l-1.6444092,0.1189766l1.0795059,1.4364433l-1.0998192,0.5842514l-0.7525635-1.5157623l-0.6635666,1.5060883l-1.1394806-0.5745773
			l1.0698357-1.4364433l-1.6337738-0.1286507l0.1876564-1.2081566l1.7633896,0.5049286l-0.1982956-1.7827339H48.7205811z"/>
	</g>
	<g id="Line_79">
		<rect x="0.878356" y="10.5647345" fill="#00556C" width="72.3081741" height="15.8487444"/>
	</g>
</g>
</svg>
