<!-- Generated by IcoMoon.io -->
<svg version="1.1" xmlns="http://www.w3.org/2000/svg" width="1024" height="1024" viewBox="0 0 1024 1024">
<title></title>
<g id="icomoon-ignore">
</g>
<path fill="#fb4f14" d="M128 128h64v64h-64v-64z"></path>
<path fill="#fb4f14" d="M256 512h64v64h-64v-64z"></path>
<path fill="#fb4f14" d="M256 384h64v64h-64v-64z"></path>
<path fill="#fb4f14" d="M128 384h64v64h-64v-64z"></path>
<path fill="#fb4f14" d="M256 256h64v64h-64v-64z"></path>
<path fill="#fb4f14" d="M128 256h64v64h-64v-64z"></path>
<path fill="#fb4f14" d="M384 256h64v64h-64v-64z"></path>
<path fill="#fb4f14" d="M256 128h64v64h-64v-64z"></path>
<path fill="#fb4f14" d="M384 384h64v64h-64v-64z"></path>
<path fill="#fb4f14" d="M384 128h64v64h-64v-64z"></path>
<path fill="#fb4f14" d="M384 512h64v64h-64v-64z"></path>
<path fill="#fb4f14" d="M384 640h64v64h-64v-64z"></path>
<path fill="#fb4f14" d="M256 640h64v64h-64v-64z"></path>
<path fill="#fb4f14" d="M832 256h64v64h-64v-64z"></path>
<path fill="#fb4f14" d="M832 384h64v64h-64v-64z"></path>
<path fill="#fb4f14" d="M704 640h64v64h-64v-64z"></path>
<path fill="#fb4f14" d="M832 512h64v64h-64v-64z"></path>
<path fill="#fb4f14" d="M128 512h64v64h-64v-64z"></path>
<path fill="#fb4f14" d="M704 512h64v64h-64v-64z"></path>
<path fill="#fb4f14" d="M832 640h64v64h-64v-64z"></path>
<path fill="#fb4f14" d="M704 256h64v64h-64v-64z"></path>
<path fill="#fb4f14" d="M512 0h-448c-35.2 0-64 28.8-64 64v896c0 35.2 28.8 64 64 64h512v-960c0-35.2-28.8-64-64-64zM512 960h-192v-128h-64v128h-192v-896h448v896z"></path>
<path fill="#fb4f14" d="M128 640h64v64h-64v-64z"></path>
<path fill="#fb4f14" d="M704 384h64v64h-64v-64z"></path>
<path fill="#fb4f14" d="M960 128h-320v64h320v768h-192v-128h-64v128h-64v64h320c35.2 0 64-28.8 64-64v-768c0-35.2-28.8-64-64-64z"></path>
</svg>
