<!-- Generated by IcoMoon.io -->
<svg version="1.1" xmlns="http://www.w3.org/2000/svg" width="1024" height="1024" viewBox="0 0 1024 1024">
<title>spiff</title>
<g id="icomoon-ignore">
</g>
<path fill="#fff" d="M480 0c-265.6 0-480 214.4-480 480s214.4 480 480 480 480-214.4 480-480-214.4-480-480-480zM896 448h-192c-3.2-54.4-12.8-105.6-28.8-156.8 48-16 92.8-35.2 131.2-64 51.2 64 83.2 140.8 89.6 220.8zM480 883.2c-44.8-51.2-83.2-108.8-108.8-169.6 73.6-12.8 147.2-12.8 220.8 0-28.8 60.8-67.2 118.4-112 169.6zM652.8 729.6c38.4 12.8 76.8 28.8 112 51.2-57.6 54.4-128 89.6-204.8 105.6 38.4-48 70.4-99.2 92.8-156.8v0zM400 889.6c-76.8-16-147.2-51.2-204.8-105.6 35.2-22.4 73.6-41.6 112-51.2 22.4 54.4 54.4 105.6 92.8 156.8zM480 640c-44.8 0-89.6 3.2-131.2 12.8-16-44.8-25.6-92.8-28.8-140.8h320c-3.2 48-9.6 96-25.6 140.8-44.8-9.6-89.6-12.8-134.4-12.8zM320 448c3.2-48 9.6-96 25.6-140.8 44.8 9.6 89.6 12.8 134.4 12.8s89.6-3.2 134.4-12.8c16 44.8 22.4 92.8 25.6 140.8h-320zM480 76.8c44.8 51.2 83.2 105.6 108.8 169.6-35.2 6.4-70.4 9.6-108.8 9.6-35.2 0-73.6-3.2-108.8-9.6 25.6-60.8 64-118.4 108.8-169.6zM307.2 230.4c-41.6-12.8-76.8-28.8-112-51.2 57.6-54.4 128-89.6 204.8-105.6-38.4 48-70.4 99.2-92.8 156.8zM560 70.4c76.8 16 147.2 51.2 204.8 105.6-35.2 22.4-70.4 41.6-112 51.2-22.4-54.4-54.4-108.8-92.8-156.8v0zM150.4 227.2c41.6 28.8 86.4 48 134.4 64-16 51.2-25.6 102.4-28.8 156.8h-192c6.4-80 38.4-156.8 86.4-220.8zM64 512h192c3.2 54.4 12.8 105.6 28.8 156.8-48 16-92.8 35.2-134.4 64-51.2-64-80-140.8-86.4-220.8zM806.4 736c-41.6-28.8-86.4-48-131.2-64 16-51.2 25.6-105.6 28.8-160h192c-6.4 83.2-38.4 160-89.6 224z"></path>
</svg>
