<?xml version="1.0" encoding="UTF-8"?>
<svg width="24px" height="23px" viewBox="0 0 24 23" version="1.1" xmlns="http://www.w3.org/2000/svg" xmlns:xlink="http://www.w3.org/1999/xlink">
    <!-- Generator: Sketch 49.1 (51147) - http://www.bohemiancoding.com/sketch -->
    <title>linkedin-in</title>
    <desc>Created with Sketch.</desc>
    <defs></defs>
    <g id="Social-Share" stroke="none" stroke-width="1" fill="none" fill-rule="evenodd">
        <g id="Desktop" transform="translate(-443.000000, -334.000000)" fill="#FFFFFF" fill-rule="nonzero">
            <g id="linkedin-in" transform="translate(443.000000, 334.000000)">
                <path d="M5.14933036,23 L0.379910714,23 L0.379910714,7.64441964 L5.14933036,7.64441964 L5.14933036,23 Z M2.76205357,5.54977679 C1.23727679,5.54977679 0,4.28683036 0,2.76205357 C0,1.23727679 1.23727679,0 2.76205357,0 C4.28683036,0 5.52410714,1.23727679 5.52410714,2.76205357 C5.52410714,4.28683036 4.28683036,5.54977679 2.76205357,5.54977679 Z M23,23 L18.2408482,23 L18.2408482,15.525 C18.2408482,13.7435268 18.2049107,11.4589286 15.7611607,11.4589286 C13.2814732,11.4589286 12.9015625,13.3944196 12.9015625,15.3966518 L12.9015625,23 L8.13727679,23 L8.13727679,7.64441964 L12.7116071,7.64441964 L12.7116071,9.7390625 L12.7783482,9.7390625 C13.4149554,8.53258929 14.9705357,7.259375 17.2910714,7.259375 C22.1169643,7.259375 23.0051339,10.4372768 23.0051339,14.5649554 L23.0051339,23 L23,23 Z" id="Shape"></path>
            </g>
        </g>
    </g>
</svg>