<svg xmlns="http://www.w3.org/2000/svg" width="77.46" height="49.294" viewBox="0 0 77.46 49.294">
  <path id="people_outline" d="M55.909,34.834a43.226,43.226,0,0,0-15.844,3.52,43.172,43.172,0,0,0-15.844-3.52c-7.571,0-22.887,3.874-22.887,11.442V55.96h77.46V46.277c0-7.571-15.316-11.442-22.887-11.442ZM41.826,50.679H6.617v-4.4c0-1.936,8.978-6.161,17.606-6.161s17.606,4.225,17.606,6.161v4.4ZM24.22,31.314A12.324,12.324,0,1,0,11.9,18.99,12.249,12.249,0,0,0,24.22,31.314Zm0-19.364a7.043,7.043,0,1,1-7.043,7.043A7.063,7.063,0,0,1,24.22,11.95ZM55.909,31.314A12.324,12.324,0,1,0,43.584,18.99,12.249,12.249,0,0,0,55.909,31.314Z" transform="translate(-1.333 -6.666)" fill="#fd4f14"/>
</svg>
