<?xml version="1.0" encoding="utf-8"?>
<!-- Generator: Adobe Illustrator 26.0.3, SVG Export Plug-In . SVG Version: 6.00 Build 0)  -->
<svg version="1.2" baseProfile="tiny" id="Layer_1" xmlns="http://www.w3.org/2000/svg" xmlns:xlink="http://www.w3.org/1999/xlink"
	 x="0px" y="0px" viewBox="0 0 45.5595589 51.4634476" overflow="visible" xml:space="preserve">
<g id="documents" transform="translate(-1)">
	<path id="Path_40039" fill="#00556C" d="M14.0887814,32.1556435h25.8369999v3.2299995H14.0887814V32.1556435z"/>
	<path id="Path_40040" fill="#00556C" d="M14.0887814,12.7786436H27.007782v3.2300005H14.0887814V12.7786436z"/>
	<path id="Path_40041" fill="#00556C" d="M14.0887814,19.2376442h25.8369999v3.2299995H14.0887814V19.2376442z"/>
	<path id="Path_40042" fill="#00556C" d="M36.6957817-0.1403557H10.8587818c-1.7818279,0.0049442-3.2250557,1.4481722-3.23,3.23
		v3.2300003H4.3997817c-1.7814391,0.0049415-3.2245069,1.4475627-3.23,3.2289996v38.7560005
		c0.0049444,1.781826,1.4481723,3.2250557,3.23,3.2299995h32.2999992c1.781826-0.0049438,3.2250557-1.4481735,3.2299995-3.2299995
		V45.074646h3.2299995c1.781826-0.0049438,3.2250557-1.4481735,3.2299995-3.2299995V9.5486441L36.6957817-0.1403557z
		 M36.6957817,48.3046455H4.3997817V9.5486441h3.23v32.2999992c0.0049443,1.781826,1.4481726,3.2250557,3.2300005,3.2299995
		h25.8359985V48.3046455z M43.1547813,41.8456459H10.8547831V3.0896442H33.46978v9.6890001h9.6889992L43.1547813,41.8456459z"/>
	<path id="Path_40043" fill="#00556C" d="M14.0887814,25.6966438h25.8369999v3.2299995H14.0887814V25.6966438z"/>
</g>
</svg>
