<!-- Generated by IcoMoon.io -->
<svg version="1.1" xmlns="http://www.w3.org/2000/svg" width="1024" height="1024" viewBox="0 0 1024 1024">
<title></title>
<g id="icomoon-ignore">
</g>
<path fill="#000" d="M89.6 310.4l393.6 131.2c19.2 6.4 41.6 6.4 60.8 0l393.6-131.2c32-9.6 32-28.8 0-41.6l-393.6-131.2c-19.2-6.4-41.6-6.4-60.8 0l-393.6 131.2c-35.2 12.8-35.2 28.8 0 41.6zM515.2 195.2l281.6 92.8-281.6 96-284.8-96 284.8-92.8z"></path>
<path fill="#000" d="M937.6 460.8l-28.8-9.6-102.4-35.2-102.4 32 96 32-281.6 96-284.8-96 92.8-28.8-102.4-32-99.2 32-28.8 9.6c-32 9.6-32 28.8 0 41.6l22.4 9.6 364.8 121.6c19.2 6.4 41.6 6.4 60.8 0l393.6-131.2c35.2-12.8 35.2-28.8 0-41.6z"></path>
<path fill="#000" d="M937.6 652.8l-28.8-9.6-99.2-32-102.4 32 92.8 32-281.6 96-284.8-96 92.8-28.8-102.4-32-99.2 32-28.8 9.6c-32 9.6-32 28.8 0 41.6l22.4 6.4 364.8 121.6c19.2 6.4 41.6 6.4 60.8 0l393.6-131.2c35.2-12.8 35.2-28.8 0-41.6z"></path>
</svg>
