<!-- Generated by IcoMoon.io -->
<svg version="1.1" xmlns="http://www.w3.org/2000/svg" width="1024" height="1024" viewBox="0 0 1024 1024">
<title></title>
<g id="icomoon-ignore">
</g>
<path fill="#fb4f14" d="M966.4 524.8l-86.4-48c-3.2-3.2-9.6-3.2-12.8-6.4 19.2-22.4 28.8-51.2 28.8-80v-76.8c0-67.2-51.2-121.6-115.2-121.6-3.2 0-6.4 0-12.8 0-67.2-3.2-121.6 44.8-128 108.8 0 3.2 0 6.4 0 12.8v80c0 28.8 9.6 57.6 28.8 80-3.2 3.2-9.6 3.2-12.8 6.4l-67.2 32-64-32c-16-9.6-35.2-16-54.4-19.2 28.8-32 41.6-70.4 41.6-112v-60.8c3.2-83.2-60.8-156.8-144-160-6.4 0-9.6 0-16 0-83.2-3.2-156.8 60.8-160 144 0 6.4 0 9.6 0 16v64c0 41.6 12.8 80 41.6 112-19.2 6.4-38.4 12.8-54.4 19.2l-92.8 44.8c-51.2 28.8-83.2 80-86.4 137.6v102.4c0 35.2 28.8 64 64 64h576c35.2 0 64-28.8 64-64h256c35.2 0 64-28.8 64-64v-86.4c-3.2-38.4-22.4-73.6-57.6-92.8zM704 313.6c0-35.2 22.4-57.6 64-57.6s64 22.4 64 57.6v80c0 35.2-22.4 57.6-64 57.6s-64-22.4-64-57.6v-80zM256 288c-3.2-48 32-92.8 80-96 6.4 0 9.6 0 16 0 48-3.2 92.8 32 96 80 0 6.4 0 9.6 0 16v64c3.2 48-32 92.8-80 96-6.4 0-9.6 0-16 0-48 3.2-92.8-32-96-80 0-6.4 0-9.6 0-16v-64zM64 768v-102.4c3.2-32 22.4-64 51.2-80l92.8-44.8c92.8-38.4 198.4-38.4 291.2 0l92.8 44.8c28.8 16 48 48 51.2 80v102.4h-579.2zM960 704h-256v-38.4c-3.2-41.6-22.4-83.2-51.2-115.2l35.2-19.2c51.2-22.4 112-22.4 163.2 0l86.4 48c12.8 9.6 19.2 22.4 22.4 38.4v86.4z"></path>
</svg>
