<svg xmlns="http://www.w3.org/2000/svg" width="150" height="61.6" viewBox="0 0 150 61.6">
    <path data-name="Path 150" d="M65.24 39.13c2.08.81 4.16 1.67 6.18 2.66a131.42 131.42 0 0 0-18.71 9.3c-2.02-1.04-4.1-2.08-6.18-3a131.056 131.056 0 0 1 18.71-8.96z" style="fill:#a7a8a9;fill-rule:evenodd" transform="translate(0 -4.2)"/>
    <path data-name="Path 151" d="M57.51 36.41a112.184 112.184 0 0 0-19.34 8.26c1.96.75 3.93 1.5 5.83 2.31a107.17 107.17 0 0 1 18.76-8.78c-1.73-.63-3.46-1.27-5.25-1.79z" style="fill:#a7a8a9;fill-rule:evenodd" transform="translate(0 -4.2)"/>
    <path data-name="Path 152" d="M106.18 49.12a.666.666 0 0 0 .69.46.6.6 0 0 0 .46-.12.431.431 0 0 0 .12-.29c0-.23-.17-.35-.4-.35l-.4-.12c-.12-.06-.29-.06-.4-.17a.641.641 0 0 1-.17-.46c0-.46.4-.63.81-.63a.8.8 0 0 1 .81.58l-.29.06c0-.23-.29-.4-.58-.4-.17 0-.46.12-.46.35 0 .29.17.35.4.4l.35.06c.17.06.35.12.46.17a.776.776 0 0 1 .17.52.646.646 0 0 1-.23.52 1.115 1.115 0 0 1-.64.17.914.914 0 0 1-.92-.69l.22-.06z" style="fill:#a7a8a9;fill-rule:evenodd" transform="translate(0 -4.2)"/>
    <path data-name="Path 153" d="M108.43 49.81h-.23V47.5h.4l.75 1.85.64-1.85h.46v2.31h-.29v-2.02l-.75 2.02h-.23l-.75-2.02z" style="fill:#a7a8a9;fill-rule:evenodd" transform="translate(0 -4.2)"/>
    <path data-name="Path 154" d="M79.27 38.84a120.336 120.336 0 0 0-16.4-6.41c-2.02.58-3.98 1.21-5.89 1.85a117.961 117.961 0 0 1 16.86 6.52c1.79-.69 3.58-1.33 5.43-1.96z" style="fill:#a7a8a9;fill-rule:evenodd" transform="translate(0 -4.2)"/>
    <path data-name="Path 155" d="M87.88 36.3a118.778 118.778 0 0 0-16.69-5.89c-1.85.35-3.64.75-5.43 1.21a111.148 111.148 0 0 1 16.51 6.29c1.85-.57 3.76-1.15 5.61-1.61z" style="fill:#a7a8a9;fill-rule:evenodd" transform="translate(0 -4.2)"/>
    <path data-name="Path 156" d="M101.73 40.92a145.525 145.525 0 0 0-37.76 19.22c2.89 1.79 5.66 3.64 8.37 5.66a153.344 153.344 0 0 1 35.85-21.19c-2.13-1.32-4.26-2.54-6.46-3.69z" style="fill:#a7a8a9;fill-rule:evenodd" transform="translate(0 -4.2)"/>
    <path data-name="Path 157" d="M92.38 36.53A130.366 130.366 0 0 0 53.12 54.2c2.66 1.33 5.31 2.71 7.91 4.21A137.835 137.835 0 0 1 99.6 39.82c-2.37-1.15-4.74-2.31-7.22-3.29z" style="fill:#a7a8a9;fill-rule:evenodd" transform="translate(0 -4.2)"/>
    <path data-name="Path 158" d="M53.64 8.99c3.41 0 5.14 2.54 5.14 5.95 0 3.52-1.67 6-5.14 6-3.52 0-5.14-2.48-5.14-6 0-3.41 1.73-5.95 5.14-5.95zm0 9.64c.92 0 1.33-.81 1.33-3.7 0-2.66-.29-3.64-1.33-3.64s-1.33.98-1.33 3.64c0 2.89.4 3.7 1.33 3.7z" style="fill:#a7a8a9;fill-rule:evenodd" transform="translate(0 -4.2)"/>
    <path data-name="Path 159" d="M61.14 11.88h-1.5V9.34h1.5V8.07c0-2.83 1.39-3.87 3.81-3.87.69 0 1.27.12 1.85.17V7.2a2.363 2.363 0 0 0-.69-.12c-.98 0-1.33.4-1.33 1.1v1.16h2.02v2.54h-2.02v8.83h-3.64v-8.83z" style="fill:#a7a8a9;fill-rule:evenodd" transform="translate(0 -4.2)"/>
    <path data-name="Path 160" d="M18.24 12.51c0-.69-.29-1.15-.92-1.15-.92 0-1.21.81-1.21 1.5l-3.23-.69c.4-2.19 2.48-3.12 4.56-3.12 2.19 0 4.5.92 4.5 3.46v6.35c0 1.27.17 1.67.35 1.85h-3.81a9.216 9.216 0 0 1-.12-1.04 4.251 4.251 0 0 1-2.77 1.27 3.056 3.056 0 0 1-3.18-3.35c.06-2.94 3.41-3.87 5.83-4.16v-.92zm0 2.72c-1.27.12-2.25.64-2.25 2.08 0 .81.4 1.21 1.1 1.21a1.553 1.553 0 0 0 1.15-.69v-2.6z" style="fill:#a7a8a9;fill-rule:evenodd" transform="translate(0 -4.2)"/>
    <path data-name="Path 161" d="M27.77 12.57v8.14h-3.7V9.34h3.58l.06 1.15a4.361 4.361 0 0 1 3.23-1.44 2.427 2.427 0 0 1 2.54 2.66v9.01h-3.7v-7.85c0-.64-.23-.98-.87-.98a1.448 1.448 0 0 0-1.14.68z" style="fill:#a7a8a9;fill-rule:evenodd" transform="translate(0 -4.2)"/>
    <path data-name="Path 162" d="M35.74 4.54h3.69v8.2h.06l2.72-3.4h3.63l-3.06 3.46 3.06 7.91h-3.81l-1.79-4.97h-.06l-.75.87v4.1h-3.69z" style="fill:#a7a8a9;fill-rule:evenodd" transform="translate(0 -4.2)"/>
    <path data-name="Path 163" d="M8.49 12.28a4.2 4.2 0 0 1 3 4.1c0 2.77-2.19 4.33-5.31 4.33H0V4.54h6.35c2.89 0 4.73 1.73 4.73 3.93a3.889 3.889 0 0 1-2.6 3.7v.11zm-4.56 5.43h1.5a1.878 1.878 0 0 0 2.08-2.02 1.9 1.9 0 0 0-2.08-2.02h-1.5v4.04zm0-6.76h1.39c1.44 0 2.02-.81 2.02-1.73 0-1.56-1.04-1.79-1.96-1.79H3.93v3.52z" style="fill:#a7a8a9;fill-rule:evenodd" transform="translate(0 -4.2)"/>
    <path data-name="Path 164" d="M141.34 12.51c0-.69-.35-1.15-.98-1.15-.87 0-1.15.81-1.21 1.5l-3.18-.69c.4-2.19 2.48-3.12 4.56-3.12 2.19 0 4.5.92 4.5 3.46v6.35a3.414 3.414 0 0 0 .29 1.85h-3.75a9.216 9.216 0 0 1-.12-1.04 4.292 4.292 0 0 1-2.83 1.27 3.087 3.087 0 0 1-3.18-3.35c.12-2.94 3.46-3.87 5.89-4.16v-.92zm0 2.72c-1.27.12-2.25.64-2.25 2.08 0 .81.4 1.21 1.04 1.21a1.662 1.662 0 0 0 1.21-.69v-2.6z" style="fill:#a7a8a9;fill-rule:evenodd" transform="translate(0 -4.2)"/>
    <path data-name="Path 165" d="M103.52 15.8c-.06.98.23 2.71 1.73 2.71a1.893 1.893 0 0 0 1.79-1.56l2.48.87a4.689 4.689 0 0 1-4.56 3.12c-3.52 0-5.14-2.83-5.14-6 0-3.23 1.73-5.95 5.08-5.95 3.52 0 4.79 3.06 4.79 6.06v.75h-6.17zm2.77-2.19c0-1.04-.12-2.31-1.39-2.31-1.04 0-1.44 1.27-1.39 2.31h2.78z" style="fill:#a7a8a9;fill-rule:evenodd" transform="translate(0 -4.2)"/>
    <path data-name="Path 166" d="M119.57 9.34h3.7v11.37h-3.7z" style="fill:#a7a8a9;fill-rule:evenodd" transform="translate(0 -4.2)"/>
    <path data-name="Path 167" d="M119.57 4.54h3.7v3.3h-3.7z" style="fill:#a7a8a9;fill-rule:evenodd" transform="translate(0 -4.2)"/>
    <path data-name="Path 168" d="M131.41 13.55a4.016 4.016 0 0 0-.17-1.44 1.057 1.057 0 0 0-1.04-.81c-1.21 0-1.39 1.5-1.39 3.81 0 2.54.4 3.41 1.39 3.41 1.27 0 1.39-1.33 1.39-2.19l2.89.4c-.29 2.77-1.91 4.21-4.56 4.21-3.29 0-5.02-2.89-5.02-5.72 0-3.12 1.73-6.24 5.2-6.24a4.377 4.377 0 0 1 4.5 4.56h-3.19z" style="fill:#a7a8a9;fill-rule:evenodd" transform="translate(0 -4.2)"/>
    <path data-name="Path 169" d="M73.21 4.54h5.37l3.41 16.17h-3.93l-.64-3.29h-3.75l-.75 3.29H69.4l3.81-16.17zm.98 10.05h2.66L75.7 8.01h-.12l-1.39 6.58z" style="fill:#a7a8a9;fill-rule:evenodd" transform="translate(0 -4.2)"/>
    <path data-name="Path 170" d="M111.2 9.34h3.58v1.5h.06a4.1 4.1 0 0 1 3.58-1.79v3.7a3.927 3.927 0 0 0-1.5-.29 2.388 2.388 0 0 0-2.02.87v7.39h-3.7V9.34z" style="fill:#a7a8a9;fill-rule:evenodd" transform="translate(0 -4.2)"/>
    <path data-name="Path 171" d="M92.55 12.57v8.14h-3.64v-7.79c0-.64-.17-1.04-.87-1.04a1.776 1.776 0 0 0-1.21.69v8.14H83.2V9.34h3.58l.06 1.15a4.962 4.962 0 0 1 3.29-1.44 2.306 2.306 0 0 1 2.25 1.5h.06a4.422 4.422 0 0 1 3.23-1.5 2.426 2.426 0 0 1 2.6 2.6v9.06h-3.64v-7.79c0-.64-.17-1.04-.87-1.04a1.835 1.835 0 0 0-1.21.69z" style="fill:#a7a8a9;fill-rule:evenodd" transform="translate(0 -4.2)"/>
    <path data-name="Path 172" d="M146.82 19.38a1.59 1.59 0 1 1 1.62 1.56 1.564 1.564 0 0 1-1.62-1.56zm.29 0a1.251 1.251 0 0 0 1.33 1.21 1.234 1.234 0 0 0 1.27-1.21 1.285 1.285 0 0 0-1.27-1.27 1.3 1.3 0 0 0-1.33 1.27z" style="fill:#a7a8a9;fill-rule:evenodd" transform="translate(0 -4.2)"/>
    <path data-name="Path 173" d="M149.19 20.25h-.29l-.52-.81h-.29v.81h-.29v-1.73h.81a.908.908 0 0 1 .4.06.443.443 0 0 1 .23.4c0 .35-.29.46-.58.46l.53.81zm-.81-1.04c.23 0 .58.06.58-.23 0-.23-.17-.29-.4-.29h-.46v.52z" style="fill:#a7a8a9;fill-rule:evenodd" transform="translate(0 -4.2)"/>
</svg>
