<svg xmlns="http://www.w3.org/2000/svg" width="150" height="44.8" viewBox="0 0 150 44.8">
    <path data-name="Path 136" d="M33.72 24.05a11.23 11.23 0 0 0-22.46 0h22.46z" style="fill:#a7a8a9;fill-rule:evenodd" transform="translate(0 -12.85)"/>
    <path data-name="Path 137" d="M33.72 46.39a11.23 11.23 0 1 1-22.46 0h22.46z" style="fill:#a7a8a9;fill-rule:evenodd" transform="translate(0 -12.85)"/>
    <path data-name="Path 138" d="M21.3 35.19a11.372 11.372 0 0 0-10.1 11.26 11.23 11.23 0 0 1 0-22.46 11.233 11.233 0 0 0 10.1 11.2z" style="fill:#a7a8a9;fill-rule:evenodd" transform="translate(0 -12.85)"/>
    <path data-name="Path 139" d="M23.79 35.19a11.372 11.372 0 0 1 10.1 11.26 11.23 11.23 0 0 0-.06-22.46 11.174 11.174 0 0 1-10.04 11.2z" style="fill:#a7a8a9;fill-rule:evenodd" transform="translate(0 -12.85)"/>
    <path data-name="Path 140" d="M99.36 27.86h2.48c.87 0 2.71-.06 2.71 2.19 0 2.19-1.27 2.83-2.71 2.83h-2.48v.69l7.51 11.66h6.29l-6.58-9.76a5.889 5.889 0 0 0 3.64-6.06c0-5.31-4.33-6-6-6H94.05v21.82h5.31V27.86z" style="fill:#a7a8a9;fill-rule:evenodd" transform="translate(0 -12.85)"/>
    <path data-name="Path 141" d="M128.58 39.23c-1.67 1.62-3.41 1.79-6.12 1.79-3.35 0-6.06-2.83-6.06-6.76s2.71-7.16 6.06-7.16a8.75 8.75 0 0 1 6.12 2.02v-5.25a12.467 12.467 0 0 0-6.12-1.44c-6.47 0-11.66 3.93-11.66 11.84 0 7.56 5.2 11.66 11.66 11.66a15.185 15.185 0 0 0 6.18-1.1l-.06-5.6z" style="fill:#a7a8a9;fill-rule:evenodd" transform="translate(0 -12.85)"/>
    <path data-name="Path 142" d="M129.97 45.24V23.41h5.36v9.47l7.05-9.47h6.35l-6.81 10.05L150 45.24h-6.7l-7.97-11.55v11.55z" style="fill:#a7a8a9;fill-rule:evenodd" transform="translate(0 -12.85)"/>
    <path data-name="Path 143" d="M54.73 45.24h5.14V30.92l6.53 14.95 6.64-15.07v14.44h5.31V23.41H70.5l-4.1 9.65-4.16-9.65h-7.51z" style="fill:#a7a8a9;fill-rule:evenodd" transform="translate(0 -12.85)"/>
    <path data-name="Path 144" d="M79.79 23.41H92.9v4.45h-7.74v3.98h7.05v4.51h-7.05v4.39h7.74v4.5H79.79z" style="fill:#a7a8a9;fill-rule:evenodd" transform="translate(0 -12.85)"/>
</svg>
