<svg xmlns="http://www.w3.org/2000/svg" width="149.99" height="32.03" viewBox="0 0 149.99 32.03">
    <path data-name="Path 123" d="M0 18.75h15.24v15.24H0V18.75z" style="fill:#a7a8a9" transform="translate(0 -18.75)"/>
    <path data-name="Path 124" d="M16.79 18.75h15.24v15.24H16.79V18.75z" style="fill:#a7a8a9" transform="translate(0 -18.75)"/>
    <path data-name="Path 125" d="M137.41 24.55a5.972 5.972 0 0 1 4.8-.56c.01.94 0 1.88.01 2.82a3.126 3.126 0 0 0-2.43-.22 1.923 1.923 0 0 0-1.1 1.54 20.375 20.375 0 0 0-.06 2.47h4.82c.01-1.04-.01-2.09.01-3.13 1.09-.31 2.17-.66 3.26-.99.01 1.37-.01 2.75.01 4.13 1.09-.02 2.17 0 3.26-.01v2.68c-1.09-.04-2.18-.01-3.27-.02v4.62c.02.85-.05 1.71.05 2.56a1.633 1.633 0 0 0 .71 1.31 2.45 2.45 0 0 0 2.51-.24v2.7a6.443 6.443 0 0 1-3.01.46 3.649 3.649 0 0 1-2.6-1.19 4.872 4.872 0 0 1-.93-3.14c-.01-2.36 0-4.72 0-7.08h-4.82v11.12h-3.3V33.27c-.76-.01-1.53 0-2.29-.01 0-.88.01-1.76 0-2.64.76-.02 1.52-.01 2.28 0a14.211 14.211 0 0 1 .23-3.51 4.525 4.525 0 0 1 1.86-2.56z" style="fill:#a7a8a9" transform="translate(0 -18.75)"/>
    <path data-name="Path 126" d="M66.85 24.74a2.016 2.016 0 0 1 1.82.65 1.877 1.877 0 0 1 .23 2.14 2.048 2.048 0 0 1-2.19.92 1.857 1.857 0 0 1-1.53-1.84 1.922 1.922 0 0 1 1.67-1.87z" style="fill:#a7a8a9" transform="translate(0 -18.75)"/>
    <path data-name="Path 127" d="M41.6 25.15h4.79q2.235 5.685 4.49 11.36c.38.95.74 1.91 1.14 2.85 1.92-4.73 3.87-9.45 5.77-14.19 1.54-.02 3.07-.01 4.61-.01v19.22c-1.11 0-2.22.01-3.33-.01.01-4.73 0-9.45.01-14.18 0-.21-.01-.42-.02-.64a3.071 3.071 0 0 0-.17.31c-1.9 4.84-3.85 9.66-5.74 14.51-.79.03-1.58 0-2.37.01q-2.94-7.26-5.86-14.53a2.755 2.755 0 0 0-.17-.29c-.04 2.07-.01 4.14-.02 6.22v8.6h-3.14q0-9.63.01-19.23z" style="fill:#a7a8a9" transform="translate(0 -18.75)"/>
    <path data-name="Path 128" d="M75.92 30.58a9.159 9.159 0 0 1 4.9.01 3.886 3.886 0 0 1 .94.39c-.02 1.05 0 2.1-.01 3.15a5.242 5.242 0 0 0-3.76-1.16 3.876 3.876 0 0 0-2.74 1.52 5.346 5.346 0 0 0-.87 3.82 3.888 3.888 0 0 0 4.41 3.66 6.325 6.325 0 0 0 2.96-1.21c.01.99 0 1.99.01 2.98a7.987 7.987 0 0 1-4.5.93 6.641 6.641 0 0 1-4.29-1.79 6.87 6.87 0 0 1-1.99-4.61 8.343 8.343 0 0 1 1.3-5.11 6.552 6.552 0 0 1 3.64-2.58z" style="fill:#a7a8a9" transform="translate(0 -18.75)"/>
    <path data-name="Path 129" d="M111.92 30.37a8.759 8.759 0 0 1 4.56.47v3.03a5.783 5.783 0 0 0-3.46-1.02 1.743 1.743 0 0 0-1.57.87 1.431 1.431 0 0 0 .48 1.69c.93.63 2.05.89 3.02 1.45a4.381 4.381 0 0 1 1.89 1.8 4.012 4.012 0 0 1-.86 4.64 6.3 6.3 0 0 1-4.59 1.39 9.631 9.631 0 0 1-3.35-.77c0-1.06-.01-2.12.01-3.19a7.328 7.328 0 0 0 2.99 1.29 3.831 3.831 0 0 0 2.27-.21 1.313 1.313 0 0 0 .39-1.87 3.871 3.871 0 0 0-1.44-.94 13.615 13.615 0 0 1-2.84-1.46 3.438 3.438 0 0 1-1.23-1.87 4.21 4.21 0 0 1 .46-3.29 4.882 4.882 0 0 1 3.27-2.01z" style="fill:#a7a8a9" transform="translate(0 -18.75)"/>
    <path data-name="Path 130" d="M89.13 30.81a3.723 3.723 0 0 1 3.06-.26v3.3a3.5 3.5 0 0 0-2.23-.52 2.717 2.717 0 0 0-2.06 1.65 6.006 6.006 0 0 0-.47 2.81v6.59h-3.25V30.61c1.08-.01 2.17-.01 3.25 0v2.36a4.149 4.149 0 0 1 1.7-2.16z" style="fill:#a7a8a9" transform="translate(0 -18.75)"/>
    <path data-name="Path 131" d="M65.48 30.6c1.09 0 2.19-.02 3.28.01-.01 4.59 0 9.18-.01 13.76h-3.27V30.6z" style="fill:#a7a8a9" transform="translate(0 -18.75)"/>
    <path data-name="Path 132" d="M105.85 33.81a5.829 5.829 0 0 0-2.88-2.91 8.752 8.752 0 0 0-4.72-.56 6.546 6.546 0 0 0-4.33 2.32 7.352 7.352 0 0 0-1.52 4.21 7.863 7.863 0 0 0 1.21 5.14 6.215 6.215 0 0 0 3.81 2.48 9.3 9.3 0 0 0 3.86 0 6.322 6.322 0 0 0 3.78-2.33 7.282 7.282 0 0 0 1.45-4.01 9.217 9.217 0 0 0-.66-4.34zm-3.19 6.32a2.97 2.97 0 0 1-1.62 1.59 4.415 4.415 0 0 1-2.69.12 3.344 3.344 0 0 1-2.07-1.7 6.375 6.375 0 0 1-.5-3.45 4.389 4.389 0 0 1 1.27-2.87 3.451 3.451 0 0 1 2.17-.86 3.588 3.588 0 0 1 2.76.94 4.44 4.44 0 0 1 1.14 2.87 7 7 0 0 1-.46 3.36z" style="fill:#a7a8a9" transform="translate(0 -18.75)"/>
    <path data-name="Path 133" d="M132.24 34.21a5.854 5.854 0 0 0-2.83-3.2 8.465 8.465 0 0 0-4.89-.66 6.783 6.783 0 0 0-3.64 1.56 6.7 6.7 0 0 0-2.17 4.23 9.154 9.154 0 0 0 .52 4.78 6.132 6.132 0 0 0 3.35 3.25 8.833 8.833 0 0 0 4.64.39 6.424 6.424 0 0 0 4.05-2.37 7.583 7.583 0 0 0 1.49-4.69 9 9 0 0 0-.52-3.29zm-2.97 4.67a4.378 4.378 0 0 1-.85 2.02 3.084 3.084 0 0 1-1.93 1.04 4.326 4.326 0 0 1-2.36-.26 3.37 3.37 0 0 1-1.74-1.82 6.51 6.51 0 0 1-.39-3 4.757 4.757 0 0 1 1-2.74 3.36 3.36 0 0 1 2.41-1.15 3.638 3.638 0 0 1 2.64.78 3.751 3.751 0 0 1 1.19 2.19 8.3 8.3 0 0 1 .03 2.94z" style="fill:#a7a8a9" transform="translate(0 -18.75)"/>
    <path data-name="Path 134" d="M0 35.54h15.24v15.24H0V35.54z" style="fill:#a7a8a9" transform="translate(0 -18.75)"/>
    <path data-name="Path 135" d="M16.79 35.54h15.24v15.24H16.79V35.54z" style="fill:#a7a8a9" transform="translate(0 -18.75)"/>
</svg>
