<?xml version="1.0" encoding="utf-8"?>
<!-- Generator: Adobe Illustrator 26.0.3, SVG Export Plug-In . SVG Version: 6.00 Build 0)  -->
<svg version="1.2" baseProfile="tiny" id="Layer_1" xmlns="http://www.w3.org/2000/svg" xmlns:xlink="http://www.w3.org/1999/xlink"
	 x="0px" y="0px" viewBox="0 0 1920.9998779 295.8676758" overflow="visible" xml:space="preserve">
<path fill="#00556C" d="M1920.2249756,112.4559326c0,0-241.9429932,170.6799316-692.1330566,180.9510498
	S577.8469238,165.8289795,348.9539185,93.3909912"/>
<path fill="#00556C" d="M0.0749512,1.565918c0,0,155.9510498,14.4379883,374.5400391,86.2249756
	s397.6190796,179.5970459,848.7260742,169.4260254c443.9085693-10.008728,689.9205322-201.203186,697.6588135-207.3024902V0H0"/>
<path fill="#6FB7BA" d="M1920.9998779,49.9144287c-7.7382812,6.0993042-253.7502441,197.2937622-697.6588135,207.3024902
	c-451.1069946,10.1710205-630.137085-97.6390381-848.7260742-169.4260254S0.0749512,1.565918,0.0749512,1.565918v10.5598755
	c11.7072144,1,131.6929321,12.5321045,348.8789673,81.2651978
	c228.8930054,72.4379883,428.947937,210.2871094,879.1380005,200.0159912s692.1330566-180.9510498,692.1330566-180.9510498
	v183.4117432L1920.9998779,49.9144287z"/>
</svg>
