<svg xmlns="http://www.w3.org/2000/svg" width="214" height="57.868" viewBox="0 0 214 57.868">
  <defs>
    <style>
      .cls-1 {
        fill: #fff;
      }
    </style>
  </defs>
  <g id="Quest-R-Orange-RGB" transform="translate(-1.873 -1.876)">
    <g id="Group_5181" data-name="Group 5181" transform="translate(207.463 7.927)">
      <path id="Path_39028" data-name="Path 39028" class="cls-1" d="M244.155,10.529a1.85,1.85,0,0,1,.595-.765,1.763,1.763,0,0,1,.849-.51A1.216,1.216,0,0,1,246.533,9a4.264,4.264,0,0,1,1.019.17,7.474,7.474,0,0,1,.849.51,2.006,2.006,0,0,1,.51.765,3.649,3.649,0,0,1,.17,1.019,4.261,4.261,0,0,1-.17,1.019,2.827,2.827,0,0,1-.51.849,1.763,1.763,0,0,1-.849.51,3.143,3.143,0,0,1-2.039,0,2.828,2.828,0,0,1-.849-.51,3.051,3.051,0,0,1-.595-.849,2.155,2.155,0,0,1-.17-1.019C243.985,11.124,244.07,10.784,244.155,10.529Zm.425,1.869a1.782,1.782,0,0,0,1.1,1.1,2.514,2.514,0,0,0,.849.17,3.018,3.018,0,0,0,.849-.17,1.782,1.782,0,0,0,1.1-1.1,3.018,3.018,0,0,0,.17-.849,2.514,2.514,0,0,0-.17-.849,1.782,1.782,0,0,0-1.1-1.1,2.209,2.209,0,0,0-1.7,0,1.782,1.782,0,0,0-1.1,1.1,2.513,2.513,0,0,0-.17.849C244.495,11.8,244.495,12.058,244.58,12.4Zm2.124-2.378a1.7,1.7,0,0,1,.764.17.836.836,0,0,1,.255.68.771.771,0,0,1-.255.595,4.138,4.138,0,0,1-.595.255l.849,1.274h-.51l-.849-1.274h-.51v1.274h-.425V10.019Zm-.17,1.359h.255a.312.312,0,0,0,.255-.085.183.183,0,0,0,.17-.17.425.425,0,0,0,0-.51l-.17-.17a.3.3,0,0,1-.17-.085h-.849v.934h.51Z" transform="translate(-243.9 -9)"/>
    </g>
    <g id="Group_5183" data-name="Group 5183" transform="translate(1.873 1.876)">
      <path id="Path_39029" data-name="Path 39029" class="cls-1" d="M60.727,66a1.79,1.79,0,0,0,2.039,0,20.832,20.832,0,0,0,1.7-1.529c.68-.68,1.274-1.274,1.7-1.784a1.584,1.584,0,0,0-.255-2.378L61.406,57a26.608,26.608,0,0,1-2.548,2.718A38.494,38.494,0,0,1,55.8,62.352Z" transform="translate(-9.992 -10.175)"/>
      <path id="Path_39030" data-name="Path 39030" class="cls-1" d="M113.1,45.975c0,11.468-8.24,16.9-17.5,16.9-9.344,0-17.5-5.436-17.5-16.9V24.314A1.613,1.613,0,0,1,79.714,22.7h4.5V45.38c0,7.985,4.842,11.722,11.468,11.722s11.383-3.738,11.383-11.722V22.7h4.5a1.523,1.523,0,0,1,1.529,1.529Z" transform="translate(-13.349 -5.011)"/>
      <g id="Group_5182" data-name="Group 5182" transform="translate(106.119 17.604)">
        <path id="Path_39031" data-name="Path 39031" class="cls-1" d="M164.006,42.562v.595a1.7,1.7,0,0,1-1.7,1.7H133c.849,8.325,6.711,12.572,13.676,12.572a17.736,17.736,0,0,0,11.128-3.907,1.575,1.575,0,0,1,2.124.255l2.294,2.888c-4.842,4.587-10.193,6.031-15.885,6.031-11.383,0-19.537-8.07-19.537-20.047,0-11.807,8.155-20.047,19.113-20.047C156.361,22.685,163.921,30.84,164.006,42.562Zm-30.92-2.633h24.8c-.765-7.22-5.521-11.892-12.062-11.892C138.692,28.036,134.02,32.963,133.086,39.929Z" transform="translate(-126.8 -22.6)"/>
      </g>
      <path id="Path_39032" data-name="Path 39032" class="cls-1" d="M206.156,30.175a1.543,1.543,0,0,1-2.124.595,25.113,25.113,0,0,0-11.3-2.8c-5.521,0-9.089,2.294-9.089,6.031,0,3.228,2.8,4.842,7.9,5.437l4.587.595c8.155,1.019,12.912,4.417,12.912,10.788,0,7.305-6.626,11.977-16.989,11.977-5.012,0-11.213-1.189-16.055-4.927l1.869-2.973a1.791,1.791,0,0,1,2.463-.595,20.952,20.952,0,0,0,11.892,3.143c6.541,0,10.618-2.124,10.618-6.2,0-3.058-2.633-5.012-8.07-5.606l-4.587-.51c-8.664-1.019-12.742-4.927-12.742-10.7,0-7.305,6.116-11.722,15.375-11.722a29.1,29.1,0,0,1,13.931,3.4,1.642,1.642,0,0,1,.595,2.209Z" transform="translate(-28.088 -5.011)"/>
      <path id="Path_39033" data-name="Path 39033" class="cls-1" d="M246.713,53.7A1.663,1.663,0,0,0,244.5,53.1a14.282,14.282,0,0,1-6.8,1.869c-4.5,0-7.645-2.633-7.645-8.664V26.089h10.278a1.523,1.523,0,0,0,1.529-1.529V20.653H229.978V10.714A1.613,1.613,0,0,0,228.364,9.1h-4.417V20.653h-2.463a1.794,1.794,0,0,0-1.784,1.784v3.653h4.247v20.3c0,9.684,4.927,14.271,13.251,14.271a18.559,18.559,0,0,0,11.468-3.823Z" transform="translate(-34.667 -2.964)"/>
      <path id="Path_39034" data-name="Path 39034" class="cls-1" d="M59.574,29.673A28.913,28.913,0,0,0,29.673,1.9a13.828,13.828,0,0,0-2.633.255A28.836,28.836,0,1,0,47.766,53.968L43.349,50.74a1.54,1.54,0,0,0-1.7-.085A22.045,22.045,0,0,1,30.1,53.543,22.367,22.367,0,1,1,49.21,43.774a1.611,1.611,0,0,0,.34,2.209L53.288,48.7A28.59,28.59,0,0,0,59.574,29.673Z" transform="translate(-1.873 -1.876)"/>
    </g>
  </g>
</svg>
