<svg xmlns="http://www.w3.org/2000/svg" width="56.076" height="49.883" viewBox="0 0 56.076 49.883">
  <g id="Backup-and-Restore-of-Teams" transform="translate(0.01 -2.524)">
    <path id="Path_404" data-name="Path 404" d="M42.464,19.066a1.769,1.769,0,0,0-2.122,2.83,1.429,1.429,0,0,1,.708,1.593,2.8,2.8,0,0,1-1.416,1.768,1.406,1.406,0,0,1-1.768-.354l-13.09-9.729a1.9,1.9,0,0,0-2.476.354A1.9,1.9,0,0,0,22.653,18L35.92,27.91a1.586,1.586,0,0,1,.354,2.476h0a1.739,1.739,0,0,1-2.476.531h-.177L21.947,22.073a1.769,1.769,0,1,0-2.122,2.83L31.5,33.747a1.429,1.429,0,0,1,.708,1.593,2.8,2.8,0,0,1-1.416,1.768,1.406,1.406,0,0,1-1.768-.354L18.94,29.147a1.769,1.769,0,1,0-2.122,2.83L22.3,36.046a1.725,1.725,0,0,1,.708,1.593,2.8,2.8,0,0,1-1.416,1.768,1.406,1.406,0,0,1-1.768-.354l-1.768-1.239a1.769,1.769,0,1,0-2.122,2.83h0L17.88,42.06a5.3,5.3,0,0,0,3.184,1.062,6.341,6.341,0,0,0,1.945-.354,5.608,5.608,0,0,0,3.184-3.715l.708.531a5.3,5.3,0,0,0,3.184,1.062,7.5,7.5,0,0,0,1.945-.354,6.238,6.238,0,0,0,3.538-4.6v-.885a6.846,6.846,0,0,0,3.361-2.122,4.848,4.848,0,0,0,1.062-3.715,1.352,1.352,0,0,0,.885-.354,6.238,6.238,0,0,0,3.538-4.6,4.433,4.433,0,0,0-1.945-4.952Z" transform="translate(11.498 9.285)" fill="#fd4f14"/>
    <path id="Path_405" data-name="Path 405" d="M2.661,22.622a1.67,1.67,0,0,0,1.768-1.768,1.352,1.352,0,0,0-.354-.885,3.25,3.25,0,0,1-.354-2.83C4.783,13.955,8.144,7.41,9.027,6.525a34.933,34.933,0,0,1,9.729,1.416,1.711,1.711,0,0,0,2.122-1.416A1.711,1.711,0,0,0,19.462,4.4h0C9.91,2.1,8.317,2.987,7.788,3.164,4.781,4.58.535,15.9.358,15.9a6.814,6.814,0,0,0,.708,5.837,1.859,1.859,0,0,0,1.593.885Z" transform="translate(0 0.245)" fill="#fd4f14"/>
    <path id="Path_406" data-name="Path 406" d="M36.795,23.573A5.016,5.016,0,0,0,39.8,24.812a5.255,5.255,0,0,0,3.538-2.3l2.476-2.83a4.576,4.576,0,0,0,1.593-3.007,5.006,5.006,0,0,0-.708-2.3c-.177-.177-.354-.531-.531-.708L40.333,5.531A7.564,7.564,0,0,0,38.74,3.763a7.093,7.093,0,0,0-2.653-.531L28.126,2.7c-.885,0-1.768-.177-2.476-.177a5.168,5.168,0,0,0-1.593.354,6.322,6.322,0,0,0-1.768,1.239l-8.844,7.076A10.124,10.124,0,0,0,11.5,13.138a3.842,3.842,0,0,0,.177,3.892,3.494,3.494,0,0,0,3.538,1.239,8.327,8.327,0,0,0,2.122-1.239c1.593-1.239,3.361-2.653,5.129-3.892L36.795,23.575Z" transform="translate(8.32)" fill="#fd4f14"/>
    <path id="Path_407" data-name="Path 407" d="M18.355,32.087l.708-.531a3.587,3.587,0,0,0,.354-4.952,3.549,3.549,0,0,0-4.777-.531h0a3.878,3.878,0,0,0,.885-5.129,3.46,3.46,0,0,0-4.952-.708.173.173,0,0,0-.177.177v.354a3.416,3.416,0,0,0,0-4.952,3.584,3.584,0,0,0-4.952-.177L1.375,19.529A3.582,3.582,0,0,0,1.2,24.482L13.757,39.34a2.443,2.443,0,0,0,.708.531,3.458,3.458,0,0,0,4.069.177l2.83-1.768a3.631,3.631,0,0,0,1.062-4.952,3.809,3.809,0,0,0-4.069-1.239h0Z" transform="translate(0.226 9.177)" fill="#fd4f14"/>
  </g>
</svg>
