<svg xmlns="http://www.w3.org/2000/svg" width="49.449" height="49.294" viewBox="0 0 49.449 49.294">
  <g id="certificate_4_" data-name="certificate (4)" transform="translate(-0.023)">
    <path id="Path_408" data-name="Path 408" d="M15.412,21.825,12.32,18.732,10,21.051l5.412,5.412L28.556,13.32,26.237,11Z" transform="translate(5.451 6.01)" fill="#fd4f14"/>
    <path id="Path_409" data-name="Path 409" d="M21.464,6A15.464,15.464,0,1,0,36.927,21.464,15.509,15.509,0,0,0,21.464,6Zm0,27.835A12.371,12.371,0,1,1,33.835,21.464,12.407,12.407,0,0,1,21.464,33.835Z" transform="translate(3.266 3.278)" fill="#fd4f14"/>
    <path id="Path_410" data-name="Path 410" d="M49.471,24.742A3.161,3.161,0,0,0,47.306,21.8,3.35,3.35,0,0,0,48.7,18.4a2.98,2.98,0,0,0-2.938-2.32,3.293,3.293,0,0,0,.464-3.711,3.016,3.016,0,0,0-3.4-1.392,3.293,3.293,0,0,0-.464-3.711A3.258,3.258,0,0,0,38.647,6.8a3.35,3.35,0,0,0-1.392-3.4,3.258,3.258,0,0,0-3.711.464A2.98,2.98,0,0,0,31.224.928a2.762,2.762,0,0,0-3.4,1.392A3.3,3.3,0,0,0,24.73,0a3.161,3.161,0,0,0-2.938,2.165,3.35,3.35,0,0,0-3.4-1.392,2.98,2.98,0,0,0-2.32,2.938,3.293,3.293,0,0,0-3.711-.464,3.016,3.016,0,0,0-1.392,3.4,3.054,3.054,0,0,0-3.711.619,3.054,3.054,0,0,0-.619,3.711,3.016,3.016,0,0,0-3.4,1.392A3.258,3.258,0,0,0,3.7,16.082,2.98,2.98,0,0,0,.761,18.4a2.762,2.762,0,0,0,1.392,3.4A3.2,3.2,0,0,0,.142,25.67a3.244,3.244,0,0,0,2.01,2.01,3.35,3.35,0,0,0-1.392,3.4A2.98,2.98,0,0,0,3.7,33.4a3.293,3.293,0,0,0-.464,3.711,3.016,3.016,0,0,0,3.4,1.392A3.293,3.293,0,0,0,7.1,42.216a3.258,3.258,0,0,0,3.711.464,3.35,3.35,0,0,0,1.392,3.4,3.258,3.258,0,0,0,3.711-.464,2.98,2.98,0,0,0,2.32,2.938,2.762,2.762,0,0,0,3.4-1.392,3.2,3.2,0,0,0,3.866,2.01,3.244,3.244,0,0,0,2.01-2.01,3.35,3.35,0,0,0,3.4,1.392,2.98,2.98,0,0,0,2.32-2.938,3.293,3.293,0,0,0,3.711.464,3.016,3.016,0,0,0,1.392-3.4,3.293,3.293,0,0,0,3.711-.464,3.258,3.258,0,0,0,.464-3.711,3.35,3.35,0,0,0,3.4-1.392,3.258,3.258,0,0,0-.464-3.711,2.98,2.98,0,0,0,2.938-2.32A2.762,2.762,0,0,0,47,27.68a3.121,3.121,0,0,0,2.474-2.938ZM24.73,43.3A18.556,18.556,0,1,1,43.286,24.742,18.611,18.611,0,0,1,24.73,43.3Z" transform="translate(0)" fill="#fd4f14"/>
  </g>
</svg>
