<svg xmlns="http://www.w3.org/2000/svg" width="54.77" height="49.417" viewBox="0 0 54.77 49.417">
  <path id="domain" d="M30.191,15.119V4H2.6V53.417H57.37v-38.3ZM13.719,48.063H8.365V42.71h5.353Zm0-11.119H8.365V31.591h5.353Zm0-11.119H8.365V20.472h5.353Zm0-10.707H8.365V9.353h5.353ZM24.838,48.063H19.072V42.71h5.353v5.353Zm0-11.119H19.072V31.591h5.353v5.353Zm0-11.119H19.072V20.472h5.353v5.353Zm0-10.707H19.072V9.353h5.353v5.765ZM52.017,48.063H30.191V42.71h5.353V36.944H30.191V31.591h5.353V25.826H30.191V20.472H52.017ZM46.663,25.826H41.31v5.353h5.353Zm0,11.119H41.31V42.3h5.353Z" transform="translate(-2.6 -4)" fill="#fd4f14"/>
</svg>
