<svg xmlns="http://www.w3.org/2000/svg" width="26.666" height="24.466" viewBox="0 0 26.666 24.466">
  <path id="Path_1795" data-name="Path 1795" d="M22,4a7.909,7.909,0,0,0-6,2.8A7.909,7.909,0,0,0,10,4a7.229,7.229,0,0,0-7.333,7.333c0,5,4.533,9.133,11.4,15.4L16,28.466l1.933-1.733c6.867-6.267,11.4-10.4,11.4-15.4A7.229,7.229,0,0,0,22,4ZM16.133,24.733,16,24.866l-.133-.133C9.534,19,5.334,15.2,5.334,11.333A4.557,4.557,0,0,1,10,6.666,5.146,5.146,0,0,1,14.734,9.8H17.2A5.315,5.315,0,0,1,22,6.666a4.557,4.557,0,0,1,4.667,4.667c0,3.867-4.2,7.667-10.533,13.4Z" transform="translate(-2.667 -4)" fill="#eee"/>
</svg>
