<!-- Generated by IcoMoon.io -->
<svg version="1.1" xmlns="http://www.w3.org/2000/svg" width="1024" height="1024" viewBox="0 0 1024 1024">
<title></title>
<g id="icomoon-ignore">
</g>
<path fill="#000" d="M512 192c-67.2 0-131.2 25.6-182.4 70.4-48 44.8-73.6 105.6-73.6 169.6 0 70.4 28.8 140.8 76.8 192 28.8 35.2 51.2 64 51.2 112v32h256v-32c0-44.8 22.4-73.6 51.2-112 48-51.2 76.8-121.6 76.8-192 0-64-28.8-128-76.8-172.8s-112-67.2-179.2-67.2zM643.2 585.6c-32 32-54.4 73.6-64 118.4h-131.2c-9.6-44.8-32-86.4-64-118.4-38.4-41.6-64-96-64-150.4 0-48 22.4-92.8 57.6-124.8 76.8-70.4 195.2-70.4 275.2 0 35.2 32 54.4 76.8 54.4 124.8-3.2 54.4-25.6 108.8-64 150.4z"></path>
<path fill="#000" d="M480 0h64v124.8h-64v-124.8z"></path>
<path fill="#000" d="M64 384h128v64h-128v-64z"></path>
<path fill="#000" d="M832 384h128v64h-128v-64z"></path>
<path fill="#000" d="M171.866 122.381l45.254-45.254 90.509 90.509-45.254 45.254-90.509-90.509z"></path>
<path fill="#000" d="M715.203 166.374l90.509-90.509 45.254 45.254-90.509 90.509-45.254-45.254z"></path>
<path fill="#000" d="M416 371.2c-16 22.4-22.4 48-22.4 76.8h64c-3.2-32 19.2-57.6 51.2-64h3.2v-64c-6.4 0-9.6 0-16 0-32 6.4-60.8 25.6-80 51.2z"></path>
<path fill="#000" d="M448 832h-64v64c0 35.2 28.8 64 64 64h128c35.2 0 64-28.8 64-64v0-64h-192z"></path>
</svg>
