<!-- Generated by IcoMoon.io -->
<svg version="1.1" xmlns="http://www.w3.org/2000/svg" width="1024" height="1024" viewBox="0 0 1024 1024">
<title>spiff</title>
<g id="icomoon-ignore">
</g>
<path fill="#00556c" d="M661.333 597.333h-34.133l-10.667-10.667c42.667-49.067 66.133-110.933 66.133-181.333 0-153.6-123.733-277.333-277.333-277.333s-277.333 123.733-277.333 277.333 123.733 277.333 277.333 277.333c68.267 0 132.267-25.6 181.333-66.133l10.667 10.667v34.133l213.333 213.333 64-64-213.333-213.333zM405.333 597.333c-106.667 0-192-85.333-192-192s85.333-192 192-192 192 85.333 192 192-85.333 192-192 192z"></path>
</svg>
