<?xml version="1.0" encoding="UTF-8"?>
<svg width="25px" height="20px" viewBox="0 0 25 20" version="1.1" xmlns="http://www.w3.org/2000/svg" xmlns:xlink="http://www.w3.org/1999/xlink">
    <!-- Generator: Sketch 49.1 (51147) - http://www.bohemiancoding.com/sketch -->
    <title>twitter</title>
    <desc>Created with Sketch.</desc>
    <defs></defs>
    <g id="Social-Share" stroke="none" stroke-width="1" fill="none" fill-rule="evenodd">
        <g id="Desktop" transform="translate(-549.000000, -336.000000)" fill="#399CA1" fill-rule="nonzero">
            <g id="twitter" transform="translate(549.000000, 336.000000)">
                <path d="M22.0850962,4.98634615 C22.1007212,5.205 22.1007212,5.42370192 22.1007212,5.64235577 C22.1007212,12.3115865 17.0246154,19.9961058 7.74697115,19.9961058 C4.88870192,19.9961058 2.23350962,19.1682692 0,17.7313942 C0.406105769,17.7782212 0.796538462,17.7938462 1.21826923,17.7938462 C3.57668269,17.7938462 5.74774038,16.9973077 7.48144231,15.6384615 C5.26355769,15.5915865 3.40490385,14.1390385 2.76451923,12.1398077 C3.07692308,12.1866346 3.38927885,12.2178846 3.71730769,12.2178846 C4.17024038,12.2178846 4.62322115,12.1553846 5.04490385,12.0461058 C2.73331731,11.5775 0.999567308,9.54706731 0.999567308,7.09490385 L0.999567308,7.03245192 C1.67115385,7.40730769 2.45216346,7.64158654 3.27990385,7.67278846 C1.92105769,6.766875 1.03081731,5.220625 1.03081731,3.47129808 C1.03081731,2.53418269 1.28067308,1.67514423 1.71802885,0.925432692 C4.20144231,3.98673077 7.934375,5.98591346 12.1201923,6.20461538 C12.0421154,5.82975962 11.9952404,5.43932692 11.9952404,5.04884615 C11.9952404,2.26865385 14.244375,0.00394230769 17.0401442,0.00394230769 C18.4926923,0.00394230769 19.8046635,0.613076923 20.7262019,1.59706731 C21.8663462,1.37841346 22.9596635,0.956682692 23.9280769,0.378798077 C23.5531731,1.55024038 22.7566346,2.53423077 21.7101923,3.15894231 C22.7254327,3.04966346 23.7094231,2.76846154 24.6152885,2.37802885 C23.9281731,3.37759615 23.0690865,4.26783654 22.0850962,4.98634615 Z" id="Shape"></path>
            </g>
        </g>
    </g>
</svg>