<?xml version="1.0" encoding="utf-8"?>
<!-- Generator: Adobe Illustrator 26.0.3, SVG Export Plug-In . SVG Version: 6.00 Build 0)  -->
<svg version="1.2" baseProfile="tiny" id="Layer_1" xmlns="http://www.w3.org/2000/svg" xmlns:xlink="http://www.w3.org/1999/xlink"
	 x="0px" y="0px" viewBox="0 0 44.8387451 49.8319092" overflow="visible" xml:space="preserve">
<g id="noun-bank-4972244" transform="translate(-151.68 -60.714)">
	<path id="Path_4600" fill="#00556C" d="M195.3355408,73.4719696l-19.9140015-12.281002
		c-0.8130341-0.5047112-1.8419647-0.5047112-2.6549988,0l-19.9129944,12.281002
		c-1.1890717,0.7327805-1.55896,2.290741-0.8261871,3.4798126c0.4606781,0.7475281,1.276123,1.2025986,2.1541901,1.2021866h1.871994
		v23.7089996h-1.3999939c-0.8596344,0.0218048-1.5388184,0.7363434-1.5170135,1.5959778
		c0.0210114,0.8289642,0.6880493,1.4959946,1.5170135,1.5170212h38.8930054
		c0.8596344-0.0218048,1.5388184-0.7363434,1.5170135-1.5959778c-0.0210114-0.8289642-0.6880493-1.4959946-1.5170135-1.5170212
		h-1.3999939V78.1539688h1.871994c1.3967285,0.0000992,2.5290833-1.1320877,2.5291748-2.5288162
		c0.0000763-0.8777161-0.4549561-1.6927032-1.202179-2.153183H195.3355408z M173.7875366,63.8399696L173.7875366,63.8399696z
		 M174.0935364,64.0289688l17.8560028,11.012001h-35.7119904L174.0935364,64.0289688z M172.5365295,78.1539688v23.7089996
		h-5.1300049V78.1539688H172.5365295z M175.6495361,78.1539688h5.1309967v23.7089996h-5.1309967V78.1539688z
		 M159.1625366,78.1539688h5.1309967v23.7089996h-5.1309967V78.1539688z M189.0225372,101.8629684h-5.1309967V78.1539688h5.1309967
		V101.8629684z M195.0955353,108.8899689c0.0005493,0.8593521-0.6956482,1.5564499-1.5549927,1.5569992
		c-0.0006714,0-0.0013428,0-0.0020142,0h-38.8909912c-0.8596344,0.0218048-1.574173-0.6573868-1.5959778-1.5170212
		s0.6573944-1.574173,1.5170135-1.5959778c0.0263214-0.0006638,0.0526428-0.0006638,0.0789642,0h38.8930054
		c0.8593597-0.0005569,1.5564575,0.6956406,1.5570068,1.5549927c0,0.0006714,0,0.0013351,0,0.0020065L195.0955353,108.8899689z"/>
</g>
</svg>
